<svg xmlns="http://www.w3.org/2000/svg" width="380" height="380" fill-rule="evenodd"><g fill-rule="nonzero"><rect fill="#fff" width="380" height="380" rx="10"/><path d="M86.328 293.503v76.328H10v-76.328h76.328zm228.983 65.424v10.904h-21.808v-10.904h21.808zm-130.847-272.6v21.808h10.904V97.232h10.904v32.712h10.904v21.808h10.904v-10.904h10.904v21.808H228.08v10.904h-10.904v-10.904h-21.808v10.904h-10.904v-10.904h10.904V151.75h10.904v-10.904h-21.808v21.808H173.56v10.904h-10.904v10.904h21.808v10.904h-21.808v21.808h10.904v10.904h-10.904v10.904H151.75V228.08h-10.904v10.904h10.904v10.904h10.904v21.808h10.904V282.6h10.904V260.79h10.904v-10.904h10.904v43.616h10.904v10.904h-21.808v32.712h-10.904v-10.904H173.56v10.904h10.904v10.904h10.904V337.12h10.904v-10.904h10.904v21.808h10.904v10.904H206.27v10.904h-21.808v-10.904h-21.808v10.904H151.75v-21.808h-21.808v10.904h10.904v10.904H119.04v-21.808h-10.904v-21.808h10.904V315.31h21.808v-10.904h10.904v10.904h10.904v-10.904h10.904v10.904h10.904v-21.808h-21.808V282.6H151.75V260.79h-10.904v10.904h-10.904v-21.808H119.04v43.616h10.904v10.904H119.04v10.904H97.232v-10.904h10.904v-10.904H97.232v-21.808h10.904V260.79H97.232v10.904H86.328V260.79H75.424v10.904h10.904V282.6H53.616v-10.904H64.52V260.79H42.712v-10.904h10.904v-10.904H64.52v-21.808H53.616v10.904H31.808v-10.904h21.808V206.27h32.712v10.904H75.424v10.904h10.904v10.904H75.424v10.904h10.904v-10.904h10.904V228.08h32.712v-10.904H119.04V206.27h21.808V173.56h10.904v-32.712h21.808v-10.904h10.904V119.04H173.56V86.328h10.904zm-109.04 218.08h-54.52v54.52h54.52v-54.52zm272.6 43.616v10.904h10.904v10.904H337.12v-10.904h-10.904v-10.904h10.904V315.31h-10.904v10.904H315.31v10.904h-10.904v-10.904H282.6v21.808h10.904v10.904H282.6v10.904h-32.712v-10.904h21.808v-10.904H260.79v-21.808h10.904V315.31H260.79v-21.808h10.904V282.6H260.79V260.79h10.904v-10.904H282.6v10.904h10.904v10.904h32.712V260.79h10.904v-10.904h-10.904v10.904H315.31v-10.904h-10.904v10.904h-10.904v-21.808h10.904V228.08h21.808v-10.904h10.904v-21.808h-10.904v-10.904H315.31v21.808h-10.904v-21.808h10.904v-21.808h21.808V151.75h-10.904V119.04h-21.808v32.712h10.904v10.904h-21.808v-32.712h-21.808V119.04h32.712v-10.904h10.904V97.232h10.904v10.904h10.904V97.232h10.904v10.904h10.904v10.904h-10.904v21.808h10.904v-10.904h10.904v32.712h-21.808v32.712h10.904v10.904h-10.904v43.616h10.904v10.904h10.904v32.712h-10.904v21.808h-10.904v21.808h10.904V315.31h10.904v32.712h-21.808zm-109.04-10.904v10.904H228.08V337.12h10.904zM64.52 315.31v32.712H31.808V315.31H64.52zm261.695 21.808v10.904H315.31V337.12h10.904zm-196.27-10.904H119.04v10.904h10.904v-10.904zm21.808 0h-10.904v10.904h10.904v-10.904zm98.136-54.52V282.6h10.904v10.904h-10.904v10.904h-10.904v10.904H228.08v10.904h-10.904v-21.808h10.904v-32.712h21.808zm0 43.616v10.904h-10.904V315.31h10.904zM315.31 282.6H282.6v32.712h32.712V282.6zm43.616-10.904H337.12V282.6h-10.904v21.808h10.904v-10.904h10.904V282.6h10.904v-10.904zm-54.52 21.808v10.904h-10.904v-10.904h10.904zM140.847 282.6v10.904h-10.904V282.6h10.904zm87.232-54.52v21.808h10.904v10.904H228.08v10.904h-10.904V228.08h10.904zm-196.27 21.808v21.808H20.904v-21.808h10.904zm239.887-54.52v21.808H260.79v21.808h10.904v10.904H260.79v10.904h-10.904v-10.904h-10.904v-10.904h10.904V206.27h10.904v-10.904h10.904zM42.712 238.983v10.904H31.808v-10.904h10.904zm141.75 0v10.904H173.56v-10.904h10.904zm-76.328 0H97.232v10.904h10.904v-10.904zM31.808 228.08v10.904H10V228.08h21.808zm272.6-21.808v21.808h-10.904v10.904H282.6V228.08h-10.904v-10.904h21.808V206.27h10.904zm-109.04 21.808v10.904h-10.904V228.08h10.904zm-98.136-10.904v10.904H86.328v-10.904h10.904zm98.136-21.808v10.904h10.904v10.904h10.904v10.904h-21.808v-10.904H173.56V206.27h10.904v-10.904h10.904zm43.616-21.808v10.904h21.808v10.904h-10.904v10.904h-10.904v10.904H228.08V206.27h-10.904v-21.808h10.904V173.56h10.904zM369.83 206.27v10.904h-10.904V206.27h10.904zm-218.08 0h-10.904v10.904h10.904V206.27zm174.463 0v10.904H315.31V206.27h10.904zm-185.367-98.136v10.904h-10.904v10.904h10.904v10.904h-10.904v10.904h10.904v10.904h-10.904v10.904H119.04v10.904h10.904v10.904H119.04v10.904H97.232v-10.904H64.52v-10.904H53.616v-21.808H64.52v10.904h10.904v10.904h10.904V173.56h10.904v-10.904h10.904V151.75h10.904v-10.904h-10.904v10.904H97.232v10.904H86.328V151.75H75.424v10.904H64.52V151.75h10.904v-10.904h10.904v-10.904h32.712V119.04h-10.904v-10.904h32.712zm-76.328 0v10.904H53.616v32.712H42.712v32.712h10.904v21.808H42.712v-10.904H20.904v10.904H10v-54.52h10.904v21.808h10.904v-32.712h10.904v-10.904H31.808V119.04h10.904v-10.904H64.52zm239.887 65.424v10.904h-10.904v10.904h-21.808v-10.904H282.6V173.56h21.808zm-32.712 0v10.904H260.79V173.56h10.904zm-65.424 0v10.904h-10.904V173.56h10.904zm65.424-32.712v10.904H260.79v21.808h-10.904v-32.712h21.808zm10.904 21.808v10.904h-10.904v-10.904H282.6zm-196.27 0v10.904H75.424v-10.904h10.904zm0-43.616v10.904H75.424v10.904H64.52V119.04h21.808zm-65.424 0v10.904H10V119.04h10.904zm141.75 0v10.904H151.75V119.04h10.904zm87.232-65.424V64.52h10.904v21.808h-10.904V75.424h-10.904v54.52h-21.808V119.04h10.904V97.232h-10.904V86.328h10.904V75.424h-10.904v10.904H206.27V75.424h-10.904v10.904h-10.904V75.424h10.904V64.52h43.616V53.616h10.904zm10.904 43.616v10.904h10.904v10.904h-21.808V97.232h10.904zm21.808 0v10.904h-10.904V97.232H282.6zm-196.27 0v10.904H64.52V97.232h21.808zm65.424 0v10.904h-10.904V97.232h10.904zm218.08 0v10.904h-10.904V97.232h10.904zm-65.424 0v10.904h-10.904V97.232h10.904zm-196.27-21.808v21.808H97.232V75.424h10.904zm21.808 0v21.808H119.04V75.424h10.904zM86.328 10v76.328H10V10h76.328zm283.503 0v76.328h-76.328V10h76.328zM173.56 53.616v32.712h-10.904V75.424H151.75v10.904h-10.904V75.424h10.904V64.52h10.904V53.616h10.904zM282.6 64.52v21.808h-10.904V64.52H282.6zm76.328-43.616h-54.52v54.52h54.52v-54.52zM140.847 64.52v10.904h-10.904V64.52h10.904zm-21.808 0v10.904h-10.904V64.52h10.904zM75.424 20.904h-54.52v54.52h54.52v-54.52zm76.328 32.712V64.52h-10.904V53.616h10.904zM162.655 10v21.808h-21.808v21.808h-10.904V64.52H119.04V53.616h-10.904V64.52H97.232V53.616h10.904V42.712h21.808V20.904h10.904V10h21.808zm185.367 21.808V64.52H315.31V31.808h32.712zM282.6 20.904v21.808h-10.904V64.52H260.79V42.712h-21.808v10.904H228.08V42.712h10.904V31.808h32.712V20.904H282.6zM64.52 31.808V64.52H31.808V31.808H64.52zm152.655-10.904v32.712h-21.808V42.712h10.904V20.904h10.904zm-32.712 21.808v10.904H173.56V42.712h10.904zm-76.328-10.904v10.904H97.232V31.808h10.904zM238.983 10v10.904H228.08V10h10.904zm-109.04 0v10.904H97.232V10h32.712zm76.328 0v10.904h-21.808V10h21.808z" fill="#000"/></g><circle fill="#fff" cx="190" cy="190" r="50"/><path d="M200.156 149.257c22.504 5.6 36.198 28.402 30.587 50.904h.001c-5.6 22.5-28.403 36.192-50.908 30.582-22.495-5.6-36.2-28.4-30.578-50.898s28.4-36.197 50.898-30.588zm-11.88 13.378l-1.89 7.568-2.943-.692.005-.024-6.356-1.587-1.226 4.922s3.42.784 3.347.832c1.867.466 2.205 1.7 2.147 2.68l-2.15 8.624a3.82 3.82 0 0 1 .479.154l-.486-.12-3.015 12.082c-.228.567-.807 1.417-2.112 1.095.046.067-3.35-.836-3.35-.836l-2.288 5.276 6 1.495 3.284.848-1.907 7.658 4.603 1.148 1.9-7.576 3.67.953-1.882 7.54 4.61 1.148 1.907-7.643c7.86 1.487 13.77.887 16.255-6.22 2.004-5.722-.098-9.023-4.233-11.177 3.01-.697 5.28-2.677 5.885-6.77h.001c.835-5.59-3.42-8.593-9.24-10.597l1.888-7.57-4.6-1.148-1.838 7.37-3.69-.87 1.85-7.42-4.606-1.148zm-1.94 27.855c3.124.78 13.14 2.323 11.656 8.29H198c-1.426 5.722-11.06 2.63-14.186 1.853l2.53-10.144zm3.45-13.844c2.603.648 10.983 1.858 9.628 7.288-1.3 5.205-9.32 2.56-11.923 1.912l2.295-9.2z" fill="#4cbf4b" fill-rule="nonzero"/></svg>