<svg xmlns="http://www.w3.org/2000/svg" width="80" height="80"><path d="M49.672 1.197c21.432 5.342 34.474 27.05 29.13 48.48h.001c-5.343 21.43-27.05 34.47-48.484 29.126C8.896 73.46-4.147 51.755 1.198 30.328S28.245-4.145 49.672 1.197zm-11.315 12.74l-1.8 7.207-2.803-.66.005-.022-6.053-1.51-1.168 4.687s3.257.746 3.188.792c1.778.444 2.1 1.62 2.045 2.552L29.725 35.2c.123.03.28.076.456.146l-.463-.115-2.872 11.506c-.218.54-.77 1.35-2.01 1.042.044.064-3.2-.796-3.2-.796l-2.18 5.025 5.713 1.424 3.128.807-1.816 7.294 4.384 1.094 1.8-7.215 3.497.907-1.793 7.18 4.39 1.094 1.816-7.28c7.485 1.416 13.114.845 15.48-5.922 1.91-5.45-.094-8.594-4.032-10.645 2.868-.664 5.028-2.55 5.604-6.446h.001c.795-5.322-3.258-8.184-8.8-10.092l1.798-7.2-4.4-1.094-1.75 7.02-3.515-.827 1.763-7.066-4.387-1.094zm-1.848 26.53c2.975.742 12.515 2.212 11.1 7.896h-.001c-1.358 5.45-10.534 2.505-13.5 1.765l2.4-9.66zm3.287-13.185c2.48.617 10.46 1.77 9.17 6.94-1.238 4.957-8.876 2.44-11.355 1.82l2.185-8.762z" fill="#4cbf4b" fill-rule="nonzero"/></svg>