<svg xmlns="http://www.w3.org/2000/svg" width="80" height="80"><path d="M40 0c22.09 0 40 17.91 40 40S62.09 80 40 80 0 62.09 0 40 17.91 0 40 0zM18.16 43.56a3.67 3.67 0 0 0-3.668 3.668 3.67 3.67 0 0 0 3.668 3.668 3.67 3.67 0 0 0 3.668-3.668 3.67 3.67 0 0 0-3.668-3.668zm43.706-14.518a3.67 3.67 0 0 0-3.668 3.668c0 2.905-.46 3.668-3.668 3.668h-.306l-.188.02c-1.743.238-3.097 1.727-3.097 3.57v.077.208c-.027 2.654-.613 3.306-3.667 3.306-.153 0-.306 0-.383.077-1.832.23-3.285 1.76-3.285 3.59a3.67 3.67 0 0 0 3.668 3.668c1.91 0 3.514-1.53 3.59-3.36v-.306l.002-.225c.05-2.43.918-3.368 3.59-3.443h.077l.2-.005c1.824-.097 3.327-1.588 3.4-3.433v-.23l.002-.225c.048-2.506.918-3.443 3.666-3.443a3.67 3.67 0 0 0 3.668-3.668c0-1.91-1.606-3.514-3.59-3.514zm-29.188 0a3.67 3.67 0 0 0-3.668 3.668c0 2.905-.46 3.59-3.668 3.59h-.306l-.188.02c-1.743.238-3.097 1.727-3.097 3.57a3.67 3.67 0 0 0 3.668 3.668c1.91 0 3.514-1.53 3.59-3.36v-.23l.002-.225c.048-2.506.918-3.443 3.666-3.443 2.828 0 3.668.993 3.668 3.59a3.67 3.67 0 0 0 3.668 3.668 3.62 3.62 0 0 0 3.668-3.668c-.077-1.832-1.53-3.36-3.36-3.514h-.306l-.225-.001c-3.005-.036-3.443-.83-3.443-3.666a3.67 3.67 0 0 0-3.668-3.668z" fill="#212124" fill-rule="evenodd" opacity=".5"/></svg>