<svg xmlns="http://www.w3.org/2000/svg" width="822" height="55"><defs><radialGradient cx="50%" cy="50%" fx="50%" fy="50%" r="50%" gradientTransform="translate(0.500000,0.500000),scale(0.068924,1.000000),rotate(90.000000),scale(1.000000,14.494374),translate(-0.500000,-0.500000)" id="A"><stop stop-color="#fff" stop-opacity=".01" offset="0%"/><stop stop-color="#fff" stop-opacity="0" offset="100%"/></radialGradient></defs><path d="M-4-1h827v57H-4z" fill="url(#A)"/><path d="M143.752 52.282c-2.32 1.53-5.032 2.294-8.14 2.294s-5.834-.765-8.177-2.294-4.18-3.602-5.513-6.216-2.32-5.45-2.96-8.5S118 31.24 118 27.788s.32-6.71.962-9.768 1.628-5.896 2.96-8.5 3.17-4.687 5.513-6.216S132.504 1 135.612 1s5.834.765 8.177 2.294 4.193 3.602 5.55 6.216 2.356 5.452 2.997 8.5.962 6.314.962 9.768-.32 6.71-.962 9.768-1.64 5.895-2.997 8.5-3.22 4.687-5.587 6.216zm-8.14-3.626c2.516 0 4.637-1.085 6.364-3.256s2.935-4.76 3.626-7.77 1.036-6.3 1.036-9.842c0-5.97-.9-10.94-2.7-14.91s-4.576-5.957-8.325-5.957c-2.565 0-4.7 1.073-6.4 3.22s-2.898 4.724-3.59 7.733-1.036 6.314-1.036 9.916c0 5.97.9 10.94 2.7 14.91s4.576 5.957 8.325 5.957zm42.92 5.032l-17.094-51.8h6.882l11.914 38.406c.296.938.617 2.32.962 4.144.345-1.825.666-3.207.962-4.144l11.988-38.406h6.808l-17.094 51.8h-5.328zm32.56 0v-51.8h30.34v6.068h-23.976v15.9H233.8v6.068h-16.354V47.62h25.53v6.068h-31.894zm77.774-37.074c0 3.355-.925 6.376-2.775 9.065s-4.7 4.452-8.547 5.29l11.1 22.718h-7.03l-10.804-22.2h-7.77v22.2h-6.364v-51.8h15.9c5.772 0 9.928 1.394 12.47 4.18s3.81 6.302 3.81 10.545zm-25.826-8.88v17.908h9.694c3.453 0 5.957-.85 7.51-2.553s2.33-3.81 2.33-6.327a9.51 9.51 0 0 0-2.294-6.29c-1.53-1.826-4.045-2.738-7.548-2.738h-9.694zm39.22 45.954v-51.8h15.984c3.01 0 5.636.444 7.88 1.332s3.984 2.084 5.217 3.59 2.146 3.145 2.738 4.92.888 3.675.888 5.698c0 4.094-1.394 7.696-4.18 10.804s-6.968 4.662-12.543 4.662h-9.62v20.794h-6.364zm6.364-26.714h10.064c3.404 0 5.92-.937 7.548-2.812s2.442-4.12 2.442-6.734c0-2.565-.777-4.823-2.33-6.77s-4.107-2.923-7.66-2.923h-10.064v19.24zm68.08 26.714l-3.996-12.728H354.43l-3.922 12.728H343.7l17.094-51.8h5.402l17.168 51.8h-6.66zm-20.498-18.426h14.652l-5.994-18.944c-.592-1.924-1.06-3.6-1.406-5.032-.197 1.184-.64 2.86-1.332 5.032l-5.92 18.944zm53.28 19.314c-3.947 0-7.412-1.085-10.397-3.256s-5.02-4.91-6.105-8.214l5.92-2.146c.987 2.368 2.442 4.255 4.366 5.66s4.095 2.11 6.512 2.11c2.713 0 4.86-.752 6.438-2.257s2.368-3.64 2.368-6.4c0-4.49-3.478-8.238-10.434-11.248-1.973-.84-3.626-1.64-4.958-2.405s-2.726-1.75-4.18-2.96-2.565-2.64-3.33-4.292-1.147-3.515-1.147-5.587c0-3.552 1.307-6.537 3.922-8.954S404.553 1 408.894 1c3.503 0 6.5.85 8.99 2.553s4.107 3.9 4.847 6.623l-5.846 1.924c-.64-1.53-1.677-2.788-3.108-3.774s-3.133-1.48-5.106-1.48c-2.32 0-4.17.604-5.55 1.813s-2.072 2.85-2.072 4.92c0 1.184.26 2.245.777 3.182s1.344 1.8 2.48 2.6 2.158 1.43 3.07 1.924 2.232 1.1 3.96 1.85c1.875.84 3.5 1.677 4.847 2.516s2.787 1.924 4.292 3.256a13.23 13.23 0 0 1 3.441 4.773c.79 1.85 1.184 3.9 1.184 6.18 0 4.588-1.455 8.19-4.366 10.804s-6.66 3.922-11.248 3.922zm45.584 0c-3.947 0-7.412-1.085-10.397-3.256s-5.02-4.91-6.105-8.214l5.92-2.146c.987 2.368 2.442 4.255 4.366 5.66s4.095 2.11 6.512 2.11c2.713 0 4.86-.752 6.438-2.257s2.368-3.64 2.368-6.4c0-4.49-3.478-8.238-10.434-11.248-1.973-.84-3.626-1.64-4.958-2.405s-2.726-1.75-4.18-2.96-2.565-2.64-3.33-4.292-1.147-3.515-1.147-5.587c0-3.552 1.307-6.537 3.922-8.954S450.137 1 454.478 1c3.503 0 6.5.85 8.99 2.553s4.107 3.9 4.847 6.623L462.47 12.1c-.64-1.53-1.677-2.788-3.108-3.774s-3.133-1.48-5.106-1.48c-2.32 0-4.17.604-5.55 1.813s-2.072 2.85-2.072 4.92c0 1.184.26 2.245.777 3.182s1.344 1.8 2.48 2.6 2.158 1.43 3.07 1.924 2.232 1.1 3.96 1.85c1.875.84 3.5 1.677 4.847 2.516s2.787 1.924 4.292 3.256a13.23 13.23 0 0 1 3.441 4.773c.79 1.85 1.184 3.9 1.184 6.18 0 4.588-1.455 8.19-4.366 10.804s-6.66 3.922-11.248 3.922zm75.1-.888v-51.8h6.882l7.77 31.006c.543 2.17.913 3.97 1.1 5.402.148-1.43.518-3.23 1.1-5.402l7.844-31.006h6.66v51.8H555.7V21.202c0-2.072.05-3.65.148-4.736-.1.543-.47 2.122-1.1 4.736l-8.362 32.486h-1.036l-8.362-32.486-1.1-4.736c.1 2.17.148 3.75.148 4.736v32.486h-5.846zm69.412-1.406c-2.32 1.53-5.032 2.294-8.14 2.294s-5.834-.765-8.177-2.294-4.18-3.602-5.513-6.216-2.32-5.45-2.96-8.5-.962-6.315-.962-9.768.32-6.71.962-9.768 1.628-5.896 2.96-8.5 3.17-4.687 5.513-6.216S588.344 1 591.452 1s5.834.765 8.177 2.294 4.193 3.602 5.55 6.216 2.356 5.452 2.997 8.5.962 6.314.962 9.768-.32 6.71-.962 9.768-1.64 5.895-2.997 8.5-3.22 4.687-5.587 6.216zm-8.14-3.626c2.516 0 4.637-1.085 6.364-3.256s2.935-4.76 3.626-7.77 1.036-6.3 1.036-9.842c0-5.97-.9-10.94-2.7-14.91S595.2 6.92 591.452 6.92c-2.565 0-4.7 1.073-6.4 3.22s-2.898 4.724-3.59 7.733-1.036 6.314-1.036 9.916c0 5.97.9 10.94 2.7 14.91s4.576 5.957 8.325 5.957zm29.896 5.032v-51.8h6.3l17.686 36.334c.79 1.53 1.233 2.442 1.332 2.738a53.51 53.51 0 0 1-.074-2.812V1.888h6.142v51.8h-6.142l-17.76-35.9c-.345-.592-.814-1.53-1.406-2.812.1.74.148 1.677.148 2.812v35.9h-6.216zm69.412-1.406c-2.32 1.53-5.032 2.294-8.14 2.294s-5.834-.765-8.177-2.294-4.18-3.602-5.513-6.216-2.32-5.45-2.96-8.5-.962-6.315-.962-9.768.32-6.71.962-9.768 1.628-5.896 2.96-8.5 3.17-4.687 5.513-6.216S679.512 1 682.62 1s5.834.765 8.177 2.294S695 6.896 696.347 9.5s2.356 5.452 2.997 8.5.962 6.314.962 9.768-.32 6.71-.962 9.768-1.64 5.895-2.997 8.5-3.22 4.687-5.587 6.216zm-8.14-3.626c2.516 0 4.637-1.085 6.364-3.256s2.935-4.76 3.626-7.77 1.036-6.3 1.036-9.842c0-5.97-.9-10.94-2.7-14.91S686.37 6.92 682.62 6.92c-2.565 0-4.7 1.073-6.4 3.22s-2.898 4.724-3.59 7.733-1.036 6.314-1.036 9.916c0 5.97.9 10.94 2.7 14.91s4.576 5.957 8.325 5.957z" fill="#2A2A2E"/></svg>