<svg xmlns="http://www.w3.org/2000/svg" width="827" height="58"><defs><radialGradient cx="50%" cy="50%" fx="50%" fy="50%" r="50%" gradientTransform="translate(0.500000,0.500000),scale(0.068924,1.000000),rotate(90.000000),scale(1.000000,14.494374),translate(-0.500000,-0.500000)" id="A"><stop stop-color="#fff" stop-opacity=".01" offset="0%"/><stop stop-color="#fff" stop-opacity="0" offset="100%"/></radialGradient></defs><path d="M0 1h827v57H0z" fill="url(#A)"/><path d="M45.75 1.5V57h-4.986l-31.1-37.397V57H.405V1.5H5.32L36.5 38.753V1.5h9.25zm22.402 8.42v15.104h20.162v8.455H68.154V48.58h23.27V57H58.868V1.5h32.556v8.42h-23.27zm54.74 47.804c-4.143 0-7.89-.825-11.237-2.475s-5.98-3.944-7.895-6.883-2.873-6.25-2.873-9.937V1.5h9.286v35.266c0 2.41.548 4.553 1.644 6.432s2.614 3.342 4.553 4.4 4.113 1.572 6.522 1.572c2.433 0 4.625-.524 6.576-1.572a11.58 11.58 0 0 0 4.589-4.39c1.108-1.88 1.662-4.023 1.662-6.432V1.5h9.286v36.928c0 3.7-.958 7.028-2.873 9.955s-4.553 5.215-7.913 6.865-7.136 2.475-11.328 2.475zM166.977 9.92v15.104h20.162v8.455h-20.162V48.58h23.27V57H157.69V1.5h32.556v8.42h-23.27zM263.92 1.5V57h-9.25V33.514h-26.27V57h-9.286V1.5h9.286v23.414h26.27V1.5h9.25zm44.407 46.828h-24.1L281.12 57h-10.153L292.72 1.5h7.046l21.86 55.5H311.4l-3.07-8.672zm-2.854-8.02l-9.178-25.763-9.214 25.763h18.392zM373.332 1.5V57h-4.986l-31.1-37.397V57h-9.25V1.5h4.914l31.183 37.253V1.5h9.25zm27.967 56.223c-2.794 0-5.474-.434-8.04-1.3s-4.854-2-6.865-3.396-3.68-2.903-5.004-4.517l6.323-6.396c1.83 2.48 3.842 4.366 6.034 5.655s4.65 1.933 7.37 1.933c1.807 0 3.396-.307 4.77-.92s2.433-1.493 3.18-2.638 1.12-2.487 1.12-4.03c0-1.686-.506-3.12-1.518-4.3s-2.258-2.15-3.74-2.91-3.63-1.716-6.45-2.873c-2.987-1.204-5.48-2.403-7.48-3.595s-3.686-2.806-5.06-4.842-2.06-4.583-2.06-7.642c0-3.083.753-5.775 2.258-8.076s3.53-4.06 6.07-5.275 5.342-1.825 8.4-1.825c6.552 0 12.225 2.614 17.02 7.84l-5.673 5.673c-1.95-2.12-3.824-3.595-5.62-4.426a13.3 13.3 0 0 0-5.655-1.247c-1.42 0-2.704.26-3.848.777s-2.048 1.277-2.7 2.276-.994 2.174-.994 3.523c0 1.566.464 2.89 1.39 3.975s2.078 1.987 3.45 2.7 3.276 1.578 5.71 2.565c3.3 1.35 5.998 2.638 8.094 3.866s3.884 2.927 5.366 5.095 2.222 4.914 2.222 8.238c0 3.348-.82 6.24-2.457 8.672s-3.83 4.276-6.576 5.528-5.757 1.88-9.033 1.88zM478.623 57l-22.258-26.52V57h-9.286V1.5h9.286v25.87L478.117 1.5h11.78L466.4 28.925 490.727 57h-12.104zM507.9 9.92v15.104h20.162v8.455H507.9V48.58h23.27V57h-32.556V1.5h32.556v8.42H507.9zm78.59-8.42V57h-4.986l-31.1-37.397V57h-9.25V1.5h4.914l31.183 37.253V1.5h9.25zm13.116 0h16.802c5.468 0 10.328 1.235 14.58 3.704s7.558 5.817 9.918 10.045 3.54 8.895 3.54 14-1.18 9.774-3.54 14-5.667 7.576-9.918 10.045S621.865 57 616.397 57h-16.802V1.5zm16.44 46.937c3.7 0 6.992-.83 9.846-2.493s5.07-3.95 6.648-6.865 2.367-6.19 2.367-9.828-.79-6.913-2.367-9.828-3.794-5.203-6.648-6.865-6.137-2.493-9.846-2.493h-7.227v38.373h7.227zm58.2-14.923h-10.66V57H654.3V1.5h24.787c2.94 0 5.637.723 8.094 2.168s4.402 3.402 5.835 5.872 2.15 5.16 2.15 8.076c0 2.433-.488 4.69-1.463 6.775a15.63 15.63 0 0 1-4.047 5.33c-1.722 1.47-3.692 2.517-5.908 3.144L696.323 57h-10.045l-12.032-23.486zm-10.66-8.094h14.236c1.566 0 2.975-.313 4.228-.94s2.24-1.518 2.963-2.674 1.084-2.517 1.084-4.083c0-1.518-.36-2.873-1.084-4.065s-1.716-2.114-2.98-2.764-2.668-.976-4.21-.976h-14.236v15.5zM705.862 1.5h9.286V57h-9.286V1.5zm47.66 56.223c-5.18 0-9.955-1.27-14.327-3.812s-7.83-5.992-10.37-10.352-3.812-9.13-3.812-14.31 1.27-9.95 3.812-14.31 5.998-7.81 10.37-10.352S748.342.777 753.52.777c3.975 0 7.86.855 11.653 2.565s6.968 4.023 9.52 6.937l-6.9 5.78c-1.758-2-3.9-3.565-6.396-4.697s-5.13-1.698-7.877-1.698c-3.59 0-6.865.86-9.828 2.583s-5.305 4.077-7.028 7.064-2.583 6.3-2.583 9.937.86 6.95 2.583 9.937 4.065 5.342 7.028 7.064 6.24 2.583 9.828 2.583c2.746 0 5.372-.566 7.877-1.698s4.637-2.698 6.396-4.697l6.9 5.78c-2.553 2.915-5.727 5.227-9.52 6.938s-7.678 2.565-11.653 2.565zm61.28-.723l-22.258-26.52V57h-9.286V1.5h9.286v25.87L814.296 1.5h11.78L802.59 28.925 826.907 57h-12.104z" fill="#2A2A2E"/></svg>