<svg xmlns="http://www.w3.org/2000/svg" xmlns:xlink="http://www.w3.org/1999/xlink" width="866" height="167"><defs><path d="M79.15 7.157c5.612 3.27 10.25 7.982 13.432 13.65a37.51 37.51 0 0 1 4.895 18.833c.08 6.552-1.61 13.003-4.895 18.67a35.24 35.24 0 0 1-13.391 13.163c-5.76 3.21-12.26 4.86-18.853 4.78h-32.04v50.302H.787V2.135h59.55a36.43 36.43 0 0 1 18.812 5.022zM63.697 51.79c2.212-1.063 4.088-2.717 5.42-4.78a12.73 12.73 0 0 0 1.982-7.047c.04-2.505-.65-4.967-1.982-7.088a13.25 13.25 0 0 0-5.421-4.82 17.38 17.38 0 0 0-7.808-1.701h-27.59V53.5h27.59a17.38 17.38 0 0 0 7.808-1.701zM159.78 76.25h-17.315v50.302h-27.5V2.134l59.55.001c13.34-.105 25.684 7.043 32.243 18.67 3.26 5.737 4.948 12.233 4.895 18.833.045 5.183-1.003 10.316-3.075 15.066a35.67 35.67 0 0 1-21.361 19.521l26.782 52.327h-29.857L159.78 76.25zM142.464 53.5h27.59a17.38 17.38 0 0 0 7.808-1.701c2.212-1.063 4.088-2.717 5.42-4.78a12.73 12.73 0 0 0 1.982-7.047c.04-2.505-.65-4.967-1.982-7.088a13.25 13.25 0 0 0-5.421-4.82 17.38 17.38 0 0 0-7.808-1.701h-27.59V53.5zm117.24-27.135v25.84h43.126v24.3h-43.126v25.84H309.8v24.22h-77.595V2.135H309.8v24.22h-50.084zm89.327 98.538c-5.794-1.978-11.282-4.76-16.304-8.262-4.228-2.925-8.074-6.367-11.45-10.246l18.124-18.63c4.477 5.725 9.062 10.004 13.755 12.84a29.47 29.47 0 0 0 15.535 4.253c4.962 0 8.805-1.12 11.53-3.362s4.085-5.33 4.086-9.275a11.47 11.47 0 0 0-2.751-7.736c-1.963-2.232-4.34-4.062-7-5.387-2.832-1.458-6.89-3.24-12.177-5.346l-2.508-.972a113.05 113.05 0 0 1-16.627-8.019 37.42 37.42 0 0 1-11.651-11.219c-3.2-4.724-4.815-10.597-4.814-17.617 0-7.3 1.834-13.608 5.502-18.954 3.676-5.353 8.758-9.586 14.686-12.23 6.3-2.844 13.124-4.28 20.026-4.212 14.94 0 28.372 6.102 40.294 18.306l-16.91 16.686c-7.282-8.315-15.104-12.473-23.464-12.474-3.722 0-6.797.945-9.224 2.835-2.38 1.792-3.74 4.634-3.64 7.614a9.73 9.73 0 0 0 2.589 6.804 22.66 22.66 0 0 0 6.432 4.82c2.56 1.324 6.19 2.958 10.883 4.9.647.217 1.618.595 2.913 1.134a117.15 117.15 0 0 1 17.477 8.708 38.83 38.83 0 0 1 12.096 12.069c3.263 5.05 4.895 11.247 4.895 18.6 0 7.83-1.942 14.58-5.826 20.25s-9.262 10.157-15.535 12.96a50.43 50.43 0 0 1-21.28 4.455c-6.693.036-13.342-1.074-19.662-3.28zm98.146 0c-5.794-1.978-11.282-4.76-16.304-8.262-4.228-2.925-8.074-6.367-11.45-10.246l18.124-18.63c4.477 5.725 9.062 10.004 13.755 12.84a29.47 29.47 0 0 0 15.535 4.253c4.962 0 8.805-1.12 11.53-3.362s4.085-5.33 4.086-9.275a11.47 11.47 0 0 0-2.751-7.736 22.94 22.94 0 0 0-6.999-5.387c-2.832-1.458-6.89-3.24-12.177-5.346l-2.508-.972a113.05 113.05 0 0 1-16.627-8.019 37.42 37.42 0 0 1-11.651-11.219c-3.2-4.724-4.815-10.597-4.814-17.617 0-7.3 1.834-13.608 5.502-18.954 3.676-5.353 8.758-9.586 14.686-12.23 6.3-2.844 13.124-4.28 20.026-4.212 14.94 0 28.372 6.102 40.294 18.306l-16.91 16.686c-7.282-8.315-15.103-12.473-23.464-12.474-3.722 0-6.797.945-9.224 2.835-2.38 1.792-3.74 4.634-3.64 7.614a9.73 9.73 0 0 0 2.589 6.804 22.66 22.66 0 0 0 6.433 4.82c2.56 1.324 6.19 2.958 10.883 4.9.647.217 1.618.595 2.913 1.134 6.057 2.41 11.903 5.324 17.477 8.708a38.83 38.83 0 0 1 12.096 12.069c3.263 5.05 4.895 11.247 4.895 18.6 0 7.83-1.942 14.58-5.826 20.25s-9.262 10.157-15.535 12.96a50.43 50.43 0 0 1-21.28 4.455c-6.693.036-13.342-1.074-19.662-3.28zm194.917 1.66L595.33 69.366v57.187h-27.5V2.135h27.5v56.7l46.363-56.7h35.035L623.9 64.1l54.535 62.452h-36.33zm51.54-124.417h27.5v124.417h-27.5V2.135zm134 24.3h-31.232v100.117h-27.348V26.435h-31.313v-24.3h89.893v24.3z" id="A"/><filter x="-4.2%" y="-19.6%" width="108.5%" height="154.8%" id="B"><feOffset dy="10" in="SourceAlpha"/><feGaussianBlur stdDeviation="10"/><feColorMatrix values="0 0 0 0 0.0479219848 0 0 0 0 0.34069409 0 0 0 0 0.0453761404 0 0 0 1 0"/></filter></defs><g fill="none"><g transform="translate(-167 -230)"><g transform="translate(186 239)"><use filter="url(#B)" xlink:href="#A" fill="#000"/><use xlink:href="#A" fill="#fff"/></g></g></g></svg>